<svg width="38" height="38" viewBox="0 0 38 38" fill="none" xmlns="http://www.w3.org/2000/svg">
<g clip-path="url(#clip0_324_908)">
<path d="M18.6308 4.53009C18.2211 4.53009 17.8887 4.86259 17.8887 5.2722C17.8887 5.68181 18.2212 6.01431 18.6308 6.01431C19.0405 6.01431 19.3729 5.68181 19.3729 5.2722C19.3729 4.86259 19.0405 4.53009 18.6308 4.53009Z" fill="white"/>
<path d="M20.115 13.4355H17.1465C16.827 13.4355 16.5435 13.6399 16.4425 13.9429L15.6623 16.2836L14.8821 13.943C14.7811 13.6399 14.4974 13.4356 14.178 13.4356H13.2732L11.9296 8.06065C11.847 7.73031 11.5502 7.4986 11.2097 7.4986C10.8691 7.4986 10.5723 7.73038 10.4897 8.06065L9.14608 13.4356H6.75676C6.34693 13.4356 6.01465 13.7679 6.01465 14.1777C6.01465 14.5875 6.347 14.9198 6.75676 14.9198H9.72521C10.0658 14.9198 10.3626 14.688 10.4451 14.3577L11.2094 11.3007L11.9737 14.3577C12.0563 14.6881 12.3531 14.9198 12.6937 14.9198H13.643L14.9581 18.865C15.0591 19.1681 15.3427 19.3725 15.6621 19.3725C15.9815 19.3725 16.2651 19.1681 16.3661 18.865L17.6812 14.9198H20.1148C20.5246 14.9198 20.8569 14.5874 20.8569 14.1777C20.8571 13.7678 20.5248 13.4355 20.115 13.4355Z" fill="white"/>
<path d="M36.7733 31.533C35.8132 30.656 26.0596 21.7653 24.6818 20.5093C27.975 15.2821 27.259 8.36747 22.8071 3.91554C17.5866 -1.30484 9.13664 -1.30544 3.91551 3.91554C-1.30487 9.13608 -1.30547 17.586 3.91551 22.8072C8.36514 27.2567 15.2711 27.9716 20.4937 24.6914C20.5047 24.7035 31.6589 36.9061 31.6678 36.9149C33.1172 38.3619 35.4624 38.3627 36.9116 36.9122C38.4527 35.3723 38.3111 32.8979 36.7733 31.533ZM4.96511 21.7575C0.324892 17.1175 0.324075 9.60588 4.96511 4.96507C9.60526 0.324848 17.1168 0.323957 21.7576 4.96507C26.4267 9.63408 26.4181 17.1401 21.7791 21.7791C17.1369 26.422 9.62404 26.4165 4.96511 21.7575ZM21.8031 23.9026C21.7954 23.8941 21.7874 23.886 21.7794 23.8778L21.7214 23.8199C22.1068 23.5116 22.4772 23.1801 22.8288 22.8286C23.178 22.4795 23.5077 22.1107 23.8149 21.7271L25.5222 23.2836L23.2817 25.5241L21.8031 23.9026ZM35.8621 35.8626C34.9442 36.7811 33.4514 36.7088 32.6334 35.7772L24.2828 26.622L26.6202 24.2848L35.7774 32.6334C36.775 33.5562 36.721 35.0044 35.8621 35.8626Z" fill="white"/>
<path d="M21.4105 6.78508C21.1501 6.46868 20.6824 6.42311 20.3659 6.68362C20.0493 6.94413 20.004 7.41178 20.2644 7.72825C23.1904 11.2835 22.9393 16.4215 19.6803 19.6797C16.2065 23.1543 10.5612 23.1547 7.08676 19.6796C3.61215 16.2057 3.61185 10.5604 7.08684 7.08611C9.33381 4.83922 12.6422 3.95995 15.7216 4.79172C16.1172 4.89844 16.5247 4.66443 16.6316 4.26877C16.7384 3.87311 16.5043 3.46573 16.1086 3.35878C12.518 2.38874 8.65879 3.41489 6.03731 6.03644C1.9826 10.0904 1.98216 16.6749 6.03716 20.7291C10.0911 24.7839 16.6756 24.7843 20.7298 20.7293C24.5341 16.9256 24.7731 10.8707 21.4105 6.78508Z" fill="white"/>
</g>
<defs>
<clipPath id="clip0_324_908">
<rect width="38" height="38" fill="white"/>
</clipPath>
</defs>
</svg>
